# xmcd
# Track frame offsets:
# 150
# 13882
# 27357
# 39682
# 50992
# 60592
# 73282
# 85676
# 99295
# 111795
# 124272
# 136505
#
# Disc length: 1973 seconds
# Revision: 0
# Processed by: cddbd v1.5.2PL0 Copyright (c) Steve Scherf et al.
# Submitted via: VisiTrax 2.11.2.271 - For more info visit www.synapsa.com
#
DISCID=a507b30c
DTITLE=Slim Dusty - Songs Of Australia
DYEAR=1964
DGENRE=Australian Country
TTITLE0=Jumpin' The Rattler
TTITLE1=By A Fire Of Gidgee Coal
TTITLE2=Song Of Australia
TTITLE3=When You're Short Of A Quid
TTITLE4=Back To The Saltbush Plains
TTITLE5=Laughter In The Hills
TTITLE6=Condamine Horse Bell
TTITLE7=The Bushman's Song
TTITLE8=Easy Goin' Drifter
TTITLE9=The Westerway Waltz
TTITLE10=The Last Of The Valley Mail
TTITLE11=Claypan Boogie
EXTD=1992 EMI Music Australia Pty Limited
EXTT0=
EXTT1=
EXTT2=
EXTT3=
EXTT4=
EXTT5=
EXTT6=
EXTT7=
EXTT8=
EXTT9=
EXTT10=
EXTT11=
PLAYORDER=
